Coordinates
version=1
nRows=5
nColumns=63
inDegrees=yes

Units are S.I. units (second, meters, Newtons, ...)
If the header above contains a line with 'inDegrees', this indicates whether rotational values are in degrees (yes) or radians (no).

endheader
time	pelvis_tilt	pelvis_list	pelvis_rotation	pelvis_tx	pelvis_ty	pelvis_tz	hip_flexion_r	hip_adduction_r	hip_rotation_r	knee_angle_r	knee_angle_r_beta	ankle_angle_r	subtalar_angle_r	mtp_angle_r	hip_flexion_l	hip_adduction_l	hip_rotation_l	knee_angle_l	knee_angle_l_beta	ankle_angle_l	subtalar_angle_l	mtp_angle_l	L5_S1_Flex_Ext	L5_S1_Lat_Bending	L5_S1_axial_rotation	L4_L5_Flex_Ext	L4_L5_Lat_Bending	L4_L5_axial_rotation	L3_L4_Flex_Ext	L3_L4_Lat_Bending	L3_L4_axial_rotation	L2_L3_Flex_Ext	L2_L3_Lat_Bending	L2_L3_axial_rotation	L1_L2_Flex_Ext	L1_L2_Lat_Bending	L1_L2_axial_rotation	L1_T12_Flex_Ext	L1_T12_Lat_Bending	L1_T12_axial_rotation	Abs_r3	Abs_r2	Abs_r1	Abs_t1	Abs_t2	neck_flexion	neck_bending	neck_rotation	arm_flex_r	arm_add_r	arm_rot_r	elbow_flex_r	pro_sup_r	wrist_flex_r	wrist_dev_r	arm_flex_l	arm_add_l	arm_rot_l	elbow_flex_l	pro_sup_l	wrist_flex_l	wrist_dev_l
      2.35593220	      2.26854735	     -0.26130678	    101.12307572	      0.25754875	      0.74954056	      0.94017070	      0.15977911	     -0.79634495	     -7.43190096	      0.93714971	      0.01635635	     26.73505995	     12.61126133	      0.00000000	      0.79914120	     -3.92304094	     -2.25066716	      1.64970415	      0.02879277	     29.96319679	      5.62342681	      0.00000000	      0.02145682	     -0.01802465	      0.49976073	      0.03984746	     -0.02397278	      0.53099577	      0.03525141	     -0.04382512	      0.53099577	      0.02452300	     -0.04382512	      0.43729064	      0.01992480	     -0.03675586	      0.40605559	      0.01226043	     -0.02792018	      0.37482055	      0.15326392	     -0.20389839	      2.77951923	      0.00000000	      0.00000000	     17.64438015	      5.93629215	     -3.07468562	     20.91662114	    -17.07573794	     -6.18899731	    111.40828791	     76.33990770	    -15.35513146	      6.31856180	    -16.76037685	    -15.34116122	    -17.65627403	    114.15670186	     56.58658910	    -11.47166622	     12.30280895
      2.37288136	      1.88186031	      0.11700184	    101.91346530	      0.25772032	      0.75045221	      0.94052861	     -0.41365400	     -1.01624143	     -7.59703514	      0.89076789	      0.01554683	     26.79188946	     12.12462955	      0.00000000	      0.58026292	     -3.71466093	     -1.86045569	      1.89915620	      0.03314653	     29.75679373	      6.49431299	      0.00000000	     -0.01152464	     -0.03751130	      0.79279092	     -0.02140241	     -0.04989003	      0.84234035	     -0.01893384	     -0.09120497	      0.84234035	     -0.01317151	     -0.09120497	      0.69369205	     -0.01070178	     -0.07649304	      0.64414262	     -0.00658518	     -0.05810500	      0.59459319	     -0.08231937	     -0.42433532	      4.40926525	      0.00000000	      0.00000000	     17.59739138	      5.40786542	     -4.73687448	     21.25804392	    -17.87484809	     -8.46871107	    112.43332362	     73.31450782	    -16.79047526	      3.02438396	    -16.45899161	    -16.41107433	    -14.92850764	    113.60624226	     58.42442754	    -11.06147603	     11.56691654
      2.38983051	      1.55769858	      0.49971077	    102.76877776	      0.25804807	      0.75138062	      0.94075366	     -0.98092317	     -1.15088351	     -7.74397402	      0.85536835	      0.01492899	     26.90350859	     11.63821066	      0.00000000	      0.37700675	     -3.59720065	     -1.46179202	      2.20214525	      0.03843469	     29.67858282	      7.46312951	      0.00000000	     -0.03848389	     -0.06070473	      0.99897501	     -0.07146844	     -0.08073729	      1.06141094	     -0.06322519	     -0.14759748	      1.06141094	     -0.04398324	     -0.14759748	      0.87410313	     -0.03573614	     -0.12378909	      0.81166719	     -0.02198970	     -0.09403163	      0.74923125	     -0.27488661	     -0.68670405	      5.55599929	      0.00000000	      0.00000000	     17.38682673	      5.40906343	     -6.27821256	     21.59270139	    -18.40876935	    -10.47633157	    113.32529894	     69.02039344	    -17.99041398	      0.03817591	    -16.35194051	    -17.39508733	    -12.64819889	    113.18139972	     60.09192794	    -10.85522566	      9.71786161
      2.40677966	      1.23725782	      0.93478102	    103.52746037	      0.25859706	      0.75228944	      0.94086486	     -1.58152044	     -1.25616839	     -7.70974325	      0.81839170	      0.01428363	     27.04725446	     10.95920135	      0.00000000	      0.07597568	     -3.51925137	     -1.23018422	      2.50590660	      0.04373632	     29.64057971	      8.63301637	      0.00000000	     -0.07696244	     -0.08498676	      1.06945495	     -0.14292694	     -0.11303239	      1.13629588	     -0.12644159	     -0.20663681	      1.13629588	     -0.08796037	     -0.20663681	      0.93577308	     -0.07146732	     -0.17330500	      0.86893214	     -0.04397634	     -0.13164449	      0.80209121	     -0.54973500	     -0.96138723	      5.94798758	      0.00000000	      0.00000000	     17.27094540	      5.93297743	     -6.83346284	     22.41959546	    -18.70525411	    -11.15936875	    113.89769563	     62.36294367	    -19.58755514	     -2.96964103	    -16.73593612	    -18.01232626	    -11.58704185	    113.27867512	     62.96338474	    -10.91012417	      8.57934359
      2.42372881	      0.95762082	      1.36617213	    104.01467957	      0.25953271	      0.75315635	      0.94052842	     -2.15462912	     -1.31805453	     -7.81935169	      0.76995487	      0.01343825	     27.17562087	     10.74505398	      0.00000000	     -0.32421033	     -3.48663803	     -0.66176632	      2.76560011	      0.04826883	     29.56506744	      9.05366735	      0.00000000	     -0.11583900	     -0.10856610	      1.06138527	     -0.21512460	     -0.14439292	      1.12772185	     -0.19031189	     -0.26396762	      1.12772185	     -0.13239239	     -0.26396762	      0.92871211	     -0.10756809	     -0.22138800	      0.86237553	     -0.06619040	     -0.16816889	      0.79603895	     -0.82742638	     -1.22812146	      5.90310646	      0.00000000	      0.00000000	     17.25229204	      6.30682423	     -7.27754589	     23.51014374	    -18.48223700	    -11.95866632	    114.08460286	     61.71987422	    -19.64361189	     -2.86677209	    -17.64758700	    -18.44461406	    -11.26347271	    113.73564411	     63.89000088	    -10.68534307	      7.55779005
